<?xml version="1.0" encoding="UTF-8"?>
<svg id="Layer_2" data-name="Layer 2" xmlns="http://www.w3.org/2000/svg" viewBox="0 0 1209.09 817.87">
  <g id="Layer_1-2" data-name="Layer 1">
    <g>
      <path style="fill: #444; stroke: #444;" d="m633.78,2.34l-299.27,196.78c-2.3,1.51-4.98,2.31-7.73,2.31H77.57C34.73,201.43,0,236.16,0,279v259.87c0,42.84,34.73,77.57,77.57,77.57h249.21c2.75,0,5.43.8,7.73,2.31l299.27,196.78c9.35,6.15,21.8-.56,21.8-11.75V14.09c0-11.2-12.44-17.9-21.8-11.75Z"/>
      <rect style="fill: #444;" x="118.29" y="201.43" width="41.14" height="415"/>
    </g>
    <g>
      <path style="fill: #444; stroke: #444; stroke-linecap: round; stroke-linejoin: round; stroke-width: 60px;" d="m802.05,572.99c43.27-42.29,69.96-100.18,69.96-164.05s-26.69-121.77-69.96-164.07"/>
      <path style="fill: #444; stroke: #444; stroke-linecap: round; stroke-linejoin: round; stroke-width: 60px;" d="m928.99,663.18c62.37-67.82,100.2-156.79,100.2-254.23s-37.83-186.44-100.2-254.23"/>
      <path style="fill: #444; stroke: #444; stroke-linecap: round; stroke-linejoin: round; stroke-width: 60px;" d="m1049.66,748.88c80.77-91.88,129.43-210.47,129.43-339.94s-48.66-248.08-129.43-339.96"/>
    </g>
  </g>
</svg>
